<?xml version="1.0" encoding="utf-8"?>
<!-- Generator: Adobe Illustrator 27.0.0, SVG Export Plug-In . SVG Version: 6.00 Build 0)  -->
<svg version="1.1" id="Layer_1" xmlns="http://www.w3.org/2000/svg" xmlns:xlink="http://www.w3.org/1999/xlink" x="0px" y="0px"
	 viewBox="0 0 21 24" style="enable-background:new 0 0 21 24;" xml:space="preserve">
<style type="text/css">
	.st0{fill:#E6E5EA;}
</style>
<path class="st0" d="M20.3,3.1l-2.4-2.4c-0.4-0.4-1-0.7-1.6-0.7H8.2C7,0,6,1,6,2.2v2.2H2.2C1,4.5,0,5.5,0,6.8v15C0,23,1,24,2.2,24
	h10.5c1.2,0,2.2-1,2.2-2.2v-2.2h3.8c1.2,0,2.2-1,2.2-2.2V4.7C21,4.1,20.8,3.5,20.3,3.1z M12.5,21.8H2.5c-0.2,0-0.3-0.1-0.3-0.3l0,0
	V7c0-0.2,0.1-0.3,0.3-0.3l0,0H6v10.5c0,1.2,1,2.2,2.2,2.2h4.5v2C12.7,21.6,12.6,21.7,12.5,21.8L12.5,21.8z M18.5,17.2H8.5
	c-0.2,0-0.3-0.1-0.3-0.3l0,0V2.5c0-0.2,0.1-0.3,0.3-0.3l0,0h5v4.1c0,0.6,0.5,1.1,1.1,1.1h4.1V17C18.7,17.1,18.6,17.2,18.5,17.2
	L18.5,17.2z M18.8,5.2h-3v-3h0.5c0.1,0,0.1,0,0.2,0.1l2.3,2.3c0.1,0.1,0.1,0.1,0.1,0.2L18.8,5.2L18.8,5.2z"/>
</svg>
